<svg xmlns="http://www.w3.org/2000/svg" version="1.1" xmlns:xlink="http://www.w3.org/1999/xlink" xmlns:svgjs="http://svgjs.dev/svgjs" width="1000" height="1000" viewBox="0 0 1000 1000"><g transform="matrix(1,0,0,1,-0.14221556886212738,-0.14221556886229791)"><svg viewBox="0 0 334 334" data-background-color="#ffffff" preserveAspectRatio="xMidYMid meet" height="1000" width="1000" xmlns="http://www.w3.org/2000/svg" xmlns:xlink="http://www.w3.org/1999/xlink"><g id="tight-bounds" transform="matrix(1,0,0,1,0.04749999999998522,0.04750000000001364)"><svg viewBox="0 0 333.90454557049503 333.90454557049503" height="333.90454557049503" width="333.90454557049503"><g><svg></svg></g><g><svg viewBox="0 0 333.90454557049503 333.90454557049503" height="333.90454557049503" width="333.90454557049503"><g><path d="M0 166.952c0-92.205 74.747-166.952 166.952-166.952 92.205 0 166.952 74.747 166.953 166.952 0 92.205-74.747 166.952-166.953 166.953-92.205 0-166.952-74.747-166.952-166.953zM166.952 327.306c88.561 0 160.354-71.793 160.354-160.354 0-88.561-71.793-160.354-160.354-160.354-88.561 0-160.354 71.793-160.354 160.354 0 88.561 71.793 160.354 160.354 160.354z" data-fill-palette-color="tertiary" fill="#8abe53" stroke="transparent"></path><ellipse rx="160.27418187383762" ry="160.27418187383762" cx="166.95227278524752" cy="166.95227278524752" fill="#8abe53" stroke="transparent" stroke-width="0" fill-opacity="1" data-fill-palette-color="tertiary"></ellipse></g><g transform="matrix(1,0,0,1,65.80236624763117,71.17305217166896)"><svg viewBox="0 0 202.2998130752327 191.55844122715712" height="191.55844122715712" width="202.2998130752327"><g><svg viewBox="0 0 202.2998130752327 191.55844122715712" height="191.55844122715712" width="202.2998130752327"><g><svg viewBox="0 0 213.1584412271571 201.84051638594343" height="191.55844122715712" width="202.2998130752327"><g transform="matrix(1,0,0,1,0,124.74553656643346)"><svg viewBox="0 0 213.1584412271571 77.09497981950999" height="77.09497981950999" width="213.1584412271571"><g id="textblocktransform"><svg viewBox="0 0 213.1584412271571 77.09497981950999" height="77.09497981950999" width="213.1584412271571" id="textblock"><g><svg viewBox="0 0 213.1584412271571 77.09497981950999" height="77.09497981950999" width="213.1584412271571"><g transform="matrix(1,0,0,1,0,0)"><svg width="213.1584412271571" viewBox="3.8499999046325684 -38.150001525878906 139.33999633789062 50.400001525878906" height="77.09497981950999" data-palette-color="#ffffff"><path d="M7.85 0L3.85 0 3.85-29.4Q3.85-31.55 4.48-32.98 5.1-34.4 6.15-35.23 7.2-36.05 8.5-36.43 9.8-36.8 11.1-36.8L11.1-36.8Q13.3-36.75 15.88-36.7 18.45-36.65 21.18-36.58 23.9-36.5 26.5-36.3L26.5-36.3 26.5-33.15 12.05-33.15Q10.05-33.15 8.95-32.05 7.85-30.95 7.85-28.8L7.85-28.8 7.85-19.25 24.3-19 24.3-15.95 7.85-15.7 7.85 0ZM59.5 0L45.7 0 45.7-36.8 59-36.8Q63.75-36.8 66.12-34.45 68.5-32.1 68.5-27.35L68.5-27.35Q68.5-25.05 67.8-23.35 67.09-21.65 65.92-20.58 64.75-19.5 63.3-19.1L63.3-19.1Q64.3-18.85 65.42-18.28 66.55-17.7 67.55-16.65 68.55-15.6 69.17-14 69.8-12.4 69.8-10.2L69.8-10.2Q69.8-6.3 68.55-4.08 67.3-1.85 65-0.93 62.7 0 59.5 0L59.5 0ZM49.7-17.35L49.7-3.55 59.39-3.55Q61.39-3.55 62.87-4.17 64.34-4.8 65.17-6.38 66-7.95 66-10.85L66-10.85Q66-12.9 65.12-14.35 64.25-15.8 62.75-16.57 61.25-17.35 59.39-17.35L59.39-17.35 49.7-17.35ZM49.7-33.2L49.7-20.5 59.25-20.5Q61.59-20.5 63.12-22.2 64.64-23.9 64.69-26.8L64.69-26.8Q64.8-30.35 63.17-31.78 61.55-33.2 59-33.2L59-33.2 49.7-33.2ZM86.19 0.05L82.79 0.05Q80.49 0.05 78.94-0.78 77.39-1.6 76.59-3.48 75.79-5.35 75.79-8.55L75.79-8.55 75.79-38.15 79.74-38.15 79.74-9.05Q79.74-6.65 80.19-5.43 80.64-4.2 81.49-3.73 82.34-3.25 83.49-3.1L83.49-3.1 86.19-2.8 86.19 0.05ZM101.09 0.3L101.09 0.3Q98.19 0.3 96.02-0.3 93.84-0.9 92.39-2.4 90.94-3.9 90.24-6.58 89.54-9.25 89.54-13.4L89.54-13.4Q89.54-17.6 90.24-20.28 90.94-22.95 92.39-24.43 93.84-25.9 96.02-26.48 98.19-27.05 101.09-27.05L101.09-27.05Q103.99-27.05 106.17-26.45 108.34-25.85 109.79-24.38 111.24-22.9 111.97-20.23 112.69-17.55 112.69-13.4L112.69-13.4Q112.69-9.2 111.97-6.53 111.24-3.85 109.82-2.38 108.39-0.9 106.19-0.3 103.99 0.3 101.09 0.3ZM101.09-2.95L101.09-2.95Q102.94-2.95 104.37-3.3 105.79-3.65 106.74-4.7 107.69-5.75 108.19-7.85 108.69-9.95 108.69-13.4L108.69-13.4Q108.69-16.9 108.19-18.95 107.69-21 106.74-22.05 105.79-23.1 104.37-23.45 102.94-23.8 101.09-23.8L101.09-23.8Q99.19-23.8 97.79-23.45 96.39-23.1 95.44-22.05 94.49-21 93.99-18.95 93.49-16.9 93.49-13.4L93.49-13.4Q93.49-9.95 93.99-7.85 94.49-5.75 95.44-4.7 96.39-3.65 97.79-3.3 99.19-2.95 101.09-2.95ZM133.34 12.25L125.89 12.25Q123.29 12.25 121.31 11.53 119.34 10.8 118.21 9.33 117.09 7.85 117.09 5.65L117.09 5.65 117.09 4.45Q117.09 2.15 118.36 0.6 119.64-0.95 121.59-1.73 123.54-2.5 125.59-2.5L125.59-2.5 126.59-0.9Q125.09-0.9 123.79-0.43 122.49 0.05 121.66 1.1 120.84 2.15 120.84 3.8L120.84 3.8 120.84 4.9Q120.84 7.3 122.44 8.33 124.04 9.35 126.79 9.35L126.79 9.35 132.99 9.35Q135.99 9.35 137.71 8.2 139.44 7.05 139.44 4.6L139.44 4.6 139.44 3.6Q139.44 2.2 138.89 1.2 138.34 0.2 137.06-0.35 135.79-0.9 133.49-0.9L133.49-0.9 125.44-0.9Q122.34-0.9 120.61-2.23 118.89-3.55 118.89-5.65L118.89-5.65Q118.89-7.65 120.06-8.8 121.24-9.95 123.39-10.4L123.39-10.4Q121.54-11.15 120.49-12.43 119.44-13.7 119.04-15.18 118.64-16.65 118.64-18.15L118.64-18.15Q118.64-21.25 119.89-23.15 121.14-25.05 123.46-25.9 125.79-26.75 128.94-26.75L128.94-26.75 143.19-26.75 143.19-24.5 137.19-24Q137.84-23.55 138.64-22.83 139.44-22.1 140.01-20.78 140.59-19.45 140.59-17.15L140.59-17.15Q140.59-15.1 139.71-13.25 138.84-11.4 136.79-10.23 134.74-9.05 131.14-9.05L131.14-9.05 126.89-9.05Q124.79-9.05 123.56-8.43 122.34-7.8 122.34-6.2L122.34-6.2Q122.34-5 123.24-4.5 124.14-4 125.14-4L125.14-4 133.99-4Q137.09-4 139.11-3.2 141.14-2.4 142.16-0.78 143.19 0.85 143.19 3.35L143.19 3.35 143.19 4.45Q143.19 8.1 140.71 10.18 138.24 12.25 133.34 12.25L133.34 12.25ZM127.74-12.1L127.74-12.1 130.74-12.1Q133.29-12.1 134.61-12.88 135.94-13.65 136.44-14.9 136.94-16.15 136.94-17.6L136.94-17.6Q136.94-19.85 136.21-21.18 135.49-22.5 134.19-23.08 132.89-23.65 131.19-23.65L131.19-23.65 128.34-23.65Q125.49-23.65 123.86-22.38 122.24-21.1 122.24-17.95L122.24-17.95Q122.24-14.85 123.71-13.48 125.19-12.1 127.74-12.1Z" opacity="1" transform="matrix(1,0,0,1,0,0)" fill="#ffffff" class="undefined-text-0" data-fill-palette-color="quaternary" id="text-0"></path></svg></g></svg></g></svg></g></svg></g><g transform="matrix(1,0,0,1,44.35086861320734,0)"><svg viewBox="0 0 124.45670400074243 106.54526211056282" height="106.54526211056282" width="124.45670400074243"><g><svg xmlns="http://www.w3.org/2000/svg" xmlns:xlink="http://www.w3.org/1999/xlink" version="1.1" x="0" y="0" viewBox="14.405998229980469 18.868194580078125 73.68655395507812 63.08180236816406" enable-background="new 0 0 100 100" xml:space="preserve" height="106.54526211056282" width="124.45670400074243" class="icon-icon-0" data-fill-palette-color="quaternary" id="icon-0"><path fill="#ffffff" d="M84.896 19.566c-2.92-1.55-6.55-0.43-8.1 2.49l-0.28 0.53-0.39 0.73-1.47 2.79-0.19 0.36-6.86 13.05h-0.01l-1.68 3.2-5.38 10.21-2.2 4.18-2.91 5.53-1.39 11.57h-39.63v3h40.43c0.12 0 0.23-0.02 0.35-0.04 0.24-0.02 0.48-0.1 0.67-0.27l10.021-8.73c0.13-0.11 0.229-0.25 0.3-0.39l6.74-12.73 2.52-4.76 1.41-2.68 2.101-3.96 1.43-2.7h-0.01l0.739-1.38 3.86-7.31 1.59-3.01 0.721-1.35 0.119-0.23C88.947 24.746 87.817 21.106 84.896 19.566zM59.567 70.416l-2.461-1.3 0.61-5.06c0.3 0.05 0.61 0.12 0.93 0.21 0.011 0 0.021 0.01 0.04 0.01 0.62 0.17 1.311 0.45 2.091 0.87 0.8 0.42 1.42 0.83 1.909 1.25 0.011 0.01 0.021 0.02 0.03 0.02 0.25 0.21 0.48 0.43 0.69 0.66L59.567 70.416zM80.367 35.726l-2.32 4.39-3.57 6.75-1.42 2.68-8.2 15.51c-0.189-0.18-0.38-0.35-0.59-0.52-0.63-0.54-1.39-1.05-2.34-1.55s-1.8-0.85-2.6-1.06c-0.25-0.08-0.5-0.14-0.75-0.2l0.35-0.66 4.75-8.98 2.76-5.21 0.885-1.68 3.689-6.975 0.526-0.995 0.359-0.68 2.511-4.73c3.41 0.37 5.43 2.13 6.35 3.18L80.367 35.726zM81.247 34.056c-1.08-1.14-3.12-2.74-6.34-3.19l0.43-0.81c3.44 0.4 5.44 2.23 6.31 3.26L81.247 34.056zM85.237 26.526l-0.311 0.6h-0.01l-0.311 0.59-0.279 0.53-0.15 0.28-0.76 1.43-0.32 0.61-0.729 1.38-0.221 0.42c-1.05-1.13-3.079-2.77-6.31-3.26l0.04-0.08h-0.01l0.1-0.2 1.19-2.25 0.72-1.37 0.72-1.37 0.19-0.36 0.02 0.01 0.15-0.28c0.92-1.74 3.07-2.4 4.8-1.48C85.487 22.636 86.157 24.796 85.237 26.526z" data-fill-palette-color="quaternary"></path><path fill="#ffffff" d="M49.43 81.67c-0.1 0.12-0.21 0.22-0.33 0.28L49.43 81.67z" data-fill-palette-color="quaternary"></path></svg></g></svg></g><g></g></svg></g></svg></g></svg></g></svg></g><defs></defs></svg><rect width="333.90454557049503" height="333.90454557049503" fill="none" stroke="none" visibility="hidden"></rect></g></svg></g></svg>